<svg xmlns="http://www.w3.org/2000/svg">
    <symbol id="dollar">
        <svg xmlns="http://www.w3.org/2000/svg"  viewBox="0 0 100 221" fill="none">
            <path d="M99.1109 171.065C99.1109 198.388 76.878 220.621 49.5554 220.621C22.2327 220.621 -0.00012207 198.388 -0.00012207 171.065C-0.00012207 143.743 22.2327 121.51 49.5554 121.51C76.878 121.51 99.1109 143.743 99.1109 171.065ZM3.57003 171.065C3.57003 196.421 24.1999 217.051 49.5554 217.051C74.9108 217.051 95.5407 196.421 95.5407 171.065C95.5407 145.71 74.9108 125.08 49.5554 125.08C24.1999 125.08 3.57003 145.71 3.57003 171.065Z" fill="#478BF9"/>
            <path d="M99.1135 49.9295C99.1135 50.9183 98.312 51.7094 97.3336 51.7094C96.3552 51.7094 95.5537 50.9079 95.5537 49.9295C95.5537 24.5741 74.9238 3.94418 49.5684 3.94418C24.213 3.94418 3.58305 24.5741 3.58305 49.9295C3.58305 50.9183 2.78156 51.7094 1.80315 51.7094C0.82474 51.7094 0.0233154 50.9079 0.0233154 49.9295C0.0233154 22.6069 22.2561 0.374023 49.5788 0.374023C76.9015 0.374023 99.1343 22.6069 99.1343 49.9295H99.1135Z" fill="#478BF9"/>
            <path d="M40.0118 162.312C40.0118 164.133 41.2505 165.715 43.02 166.152L46.3819 166.996V158.346H43.9879C41.8021 158.346 40.0223 160.126 40.0223 162.312H40.0118Z" fill="#478BF9"/>
            <path d="M52.7292 183.785H55.1233C57.3091 183.785 59.089 182.005 59.089 179.819C59.089 177.997 57.8503 176.415 56.0808 175.978L52.7189 175.135V183.785H52.7292Z" fill="#478BF9"/>
            <path d="M49.5562 130.742C27.3234 130.742 9.22278 148.832 9.22278 171.076C9.22278 193.319 27.313 211.409 49.5562 211.409C71.7995 211.409 89.8897 193.319 89.8897 171.076C89.8897 148.832 71.7995 130.742 49.5562 130.742ZM65.4607 164.706H59.1009V161.521C59.1009 159.772 57.675 158.335 55.9159 158.335H52.7309V168.578L57.6334 169.806C62.234 170.961 65.4502 175.073 65.4502 179.819C65.4502 185.512 60.8184 190.144 55.1249 190.144H52.7309V198.201H46.3712V190.144H43.1862C37.9194 190.144 33.6415 185.866 33.6415 180.6V177.415H40.0011V180.6C40.0011 182.348 41.4271 183.785 43.1862 183.785H46.3712V173.542L41.4687 172.314C36.8681 171.159 33.6519 167.048 33.6519 162.301C33.6519 156.608 38.2837 151.976 43.9772 151.976H46.3712V143.92H52.7309V151.976H55.9159C61.1827 151.976 65.4607 156.254 65.4607 161.521V164.706Z" fill="#478BF9"/>
            <path d="M99.1729 49.1697V168.765C99.1729 169.754 98.3715 170.545 97.3931 170.545C96.4146 170.545 95.6132 169.743 95.6132 168.765V49.1697C95.6132 48.1809 96.4146 47.3899 97.3931 47.3899C98.3715 47.3899 99.1729 48.1913 99.1729 49.1697Z" fill="#478BF9"/>
            <path d="M3.63774 48.9095V168.505C3.63774 169.494 2.83625 170.285 1.85784 170.285C0.879427 170.285 0.0780029 169.483 0.0780029 168.505V48.9095C0.0780029 47.9207 0.879427 47.1296 1.85784 47.1296C2.83625 47.1296 3.63774 47.9311 3.63774 48.9095Z" fill="#478BF9"/>
        </svg>
    </symbol>
    <symbol id="soccer">
        <svg xmlns="http://www.w3.org/2000/svg"  viewBox="0 0 100 100" fill="none">
            <path d="M49.8769 99.9324C22.5542 99.9324 0.331787 77.6996 0.331787 50.3874C0.331787 23.0751 22.5646 0.842285 49.8769 0.842285C77.1891 0.842285 99.422 23.0751 99.422 50.3874C99.422 77.6996 77.1891 99.9324 49.8769 99.9324ZM49.8769 4.14181C24.3757 4.14181 3.63131 24.8862 3.63131 50.3874C3.63131 75.8885 24.3757 96.6329 49.8769 96.6329C75.378 96.6329 96.1224 75.8885 96.1224 50.3874C96.1224 24.8862 75.378 4.14181 49.8769 4.14181Z" fill="#9DADF2"/>
            <path d="M65.9512 19.4529C65.7014 19.4529 65.4516 19.4009 65.2226 19.2864C60.4242 16.9132 55.2615 15.7058 49.8803 15.7058C44.499 15.7058 39.3363 16.9132 34.538 19.2864C33.903 19.5986 33.1432 19.4737 32.6436 18.9741L24.1293 10.4599C23.765 10.0956 23.5985 9.59593 23.6609 9.08591C23.7234 8.57588 24.0148 8.12833 24.452 7.86811C32.1232 3.2675 40.9185 0.842285 49.8907 0.842285C58.8629 0.842285 67.6582 3.27791 75.3294 7.86811C75.7666 8.12833 76.058 8.57588 76.1205 9.08591C76.1829 9.59593 76.006 10.0956 75.6521 10.4599L67.1378 18.9741C66.8151 19.2864 66.3988 19.4529 65.9616 19.4529H65.9512ZM49.8803 12.4063C55.3656 12.4063 60.6532 13.5512 65.6077 15.8099L71.7697 9.64795C65.0665 6.03615 57.541 4.1418 49.8803 4.1418C42.2195 4.1418 34.6941 6.03615 27.991 9.64795L34.1528 15.8099C39.1074 13.5512 44.3949 12.4063 49.8803 12.4063Z" fill="#9DADF2"/>
            <path d="M49.8785 99.9324C40.9062 99.9324 32.1109 97.4968 24.4398 92.9066C24.0026 92.6464 23.7112 92.1988 23.6487 91.6888C23.5863 91.1788 23.7632 90.6792 24.1171 90.3149L32.6314 81.8006C33.131 81.301 33.9012 81.1761 34.5258 81.4884C39.3241 83.8615 44.4868 85.0689 49.8681 85.0689C55.2493 85.0689 60.4121 83.8615 65.2105 81.4884C65.8454 81.1761 66.6052 81.301 67.1048 81.8006L75.6191 90.3149C75.9834 90.6792 76.1499 91.1788 76.0874 91.6888C76.025 92.1988 75.7335 92.6464 75.2964 92.9066C67.6252 97.5072 58.83 99.9324 49.8577 99.9324H49.8785ZM27.9892 91.1268C34.6923 94.7386 42.2177 96.6329 49.8785 96.6329C57.5392 96.6329 65.0647 94.7386 71.7679 91.1268L65.6059 84.9649C60.6514 87.2235 55.3638 88.3685 49.8785 88.3685C44.3931 88.3685 39.1056 87.2235 34.1511 84.9649L27.9892 91.1268Z" fill="#9DADF2"/>
            <path d="M90.9825 76.6275C90.5453 76.6275 90.129 76.4609 89.8167 76.1487L81.3024 67.6344C80.8028 67.1348 80.6779 66.3646 80.9902 65.7401C83.3634 60.9417 84.5708 55.779 84.5708 50.3977C84.5708 45.0165 83.3634 39.8538 80.9902 35.0554C80.6779 34.4205 80.8028 33.6502 81.3024 33.161L89.8167 24.6468C90.181 24.2825 90.6806 24.1159 91.1906 24.1784C91.7007 24.2408 92.1482 24.5323 92.4084 24.9694C97.0091 32.6406 99.4343 41.4359 99.4343 50.4082C99.4343 59.3804 97.0091 68.1757 92.4084 75.8469C92.1482 76.284 91.7007 76.5755 91.1906 76.6379C91.1178 76.6379 91.0553 76.6379 90.9825 76.6379V76.6275ZM84.4563 66.1147L90.6182 72.2767C94.23 65.5735 96.1243 58.0481 96.1243 50.3873C96.1243 42.7266 94.23 35.2012 90.6182 28.498L84.4563 34.6599C86.715 39.6144 87.8599 44.902 87.8599 50.3873C87.8599 55.8727 86.715 61.1602 84.4563 66.1147Z" fill="#9DADF2"/>
            <path d="M8.77293 76.6276C8.70007 76.6276 8.63762 76.6276 8.57516 76.6172C8.06514 76.5547 7.61759 76.2633 7.35737 75.8261C2.75675 68.1549 0.331543 59.3596 0.331543 50.3874C0.331543 41.4152 2.75675 32.6199 7.35737 24.9487C7.61759 24.5115 8.06514 24.2201 8.57516 24.1576C9.08519 24.0952 9.58481 24.2721 9.94911 24.626L18.4634 33.1403C18.963 33.6399 19.0879 34.4101 18.7756 35.0347C16.4024 39.833 15.195 44.9957 15.195 50.377C15.195 55.7582 16.4024 60.9209 18.7756 65.7193C19.0879 66.3542 18.963 67.1245 18.4634 67.6137L9.94911 76.1279C9.63685 76.4402 9.22051 76.6172 8.78335 76.6172L8.77293 76.6276ZM9.13721 28.4981C5.52541 35.2012 3.63106 42.7266 3.63106 50.3874C3.63106 58.0481 5.52541 65.5736 9.13721 72.2768L15.2992 66.1148C13.0405 61.1603 11.8955 55.8727 11.8955 50.3874C11.8955 44.902 13.0405 39.6145 15.2992 34.66L9.13721 28.4981Z" fill="#9DADF2"/>
            <path d="M49.878 12.3958C28.9358 12.3958 11.8865 29.4347 11.8865 50.3873C11.8865 71.3399 28.9254 88.3788 49.878 88.3788C70.8306 88.3788 87.8695 71.3399 87.8695 50.3873C87.8695 29.4347 70.8306 12.3958 49.878 12.3958ZM71.2574 37.9073C73.0581 40.9883 74.151 44.3503 74.5049 47.9204C74.5153 48.0662 74.4528 48.2015 74.3279 48.2743C71.6112 49.9397 69.1756 51.9798 67.0731 54.3634C66.9794 54.4779 66.8233 54.5195 66.688 54.4674L61.9937 52.9374C61.8583 52.8958 61.7647 52.7813 61.7439 52.6356C61.213 48.7532 60.0056 45.0372 58.1529 41.5815C58.0904 41.4566 58.1009 41.3109 58.1841 41.1964L61.0881 37.1995C61.161 37.1059 61.2754 37.0434 61.3899 37.0434C61.4212 37.0434 61.442 37.0434 61.4732 37.0434C64.575 37.7304 67.7601 37.9594 70.9243 37.6991C71.07 37.6887 71.2053 37.7616 71.2781 37.8865L71.2574 37.9073ZM59.1833 53.2913C59.1937 53.3953 59.1625 53.4995 59.1 53.5723C56.6332 56.4139 53.4898 58.6934 50.0237 60.1506C49.93 60.1922 49.8364 60.1922 49.7427 60.1506C46.2766 58.683 43.1332 56.4035 40.6664 53.5723C40.6039 53.4995 40.5727 53.3953 40.5831 53.2913C41.0619 49.5233 42.2381 45.922 44.0596 42.5912C44.1116 42.4975 44.1949 42.4351 44.299 42.4143C46.1309 42.0292 48.0044 41.8314 49.8884 41.8314C51.7724 41.8314 53.6459 42.0292 55.4778 42.4143C55.5819 42.4351 55.6652 42.4975 55.7172 42.5912C57.5387 45.922 58.7045 49.5233 59.1937 53.2913H59.1833ZM58.6213 27.4571C58.6213 27.4571 58.7462 27.353 58.8711 27.353C58.9127 27.353 58.9648 27.353 59.0168 27.3842C62.8472 28.9039 66.2716 31.4019 68.9362 34.5974C69.0715 34.7535 69.0195 34.9201 68.9882 34.9825C68.9674 35.0345 68.8738 35.2011 68.6552 35.2011C66.2924 35.2323 63.9401 34.9617 61.6606 34.4205C61.5669 34.3996 61.4837 34.3372 61.4316 34.2539C60.2138 32.245 59.2354 30.08 58.5276 27.8318C58.4651 27.634 58.5796 27.4987 58.6317 27.4571H58.6213ZM44.6216 26.208C48.0669 25.469 51.6995 25.469 55.1448 26.208C55.2801 26.2393 55.3946 26.3434 55.4258 26.4787C56.1648 29.57 57.3618 32.5261 58.9751 35.2636C59.048 35.3885 59.0376 35.5445 58.9544 35.6694L56.0711 39.6456C55.9879 39.76 55.8422 39.8225 55.7069 39.7913C51.8973 39.021 47.8692 39.021 44.0596 39.7913C43.9243 39.8225 43.7785 39.76 43.6953 39.6456L40.8121 35.6694C40.7288 35.555 40.7184 35.3885 40.7913 35.2636C42.4046 32.5261 43.6016 29.57 44.3406 26.4787C44.3718 26.3434 44.4863 26.2393 44.6216 26.208ZM30.8302 34.5974C33.4948 31.3915 36.9193 28.8935 40.7497 27.3842C40.8017 27.3634 40.8537 27.353 40.8953 27.353C41.0306 27.353 41.1139 27.4259 41.1451 27.4571C41.1972 27.5091 41.3117 27.634 41.2493 27.8318C40.5415 30.0905 39.563 32.245 38.3452 34.2539C38.2932 34.3372 38.2099 34.3996 38.1162 34.4205C35.8368 34.9617 33.4844 35.2323 31.1217 35.2011C30.9031 35.2011 30.8094 35.0345 30.7886 34.9825C30.7574 34.9201 30.7053 34.7535 30.8406 34.5974H30.8302ZM28.5091 37.9073C28.5716 37.7928 28.6965 37.72 28.8318 37.72C28.8318 37.72 28.8525 37.72 28.863 37.72C32.0376 37.9698 35.2227 37.7512 38.314 37.0642C38.4597 37.033 38.6054 37.0851 38.6887 37.21L41.5928 41.2068C41.676 41.3213 41.6864 41.4775 41.624 41.592C39.7712 45.0476 38.5638 48.7635 38.033 52.6459C38.0121 52.7812 37.9185 52.8958 37.7832 52.9478L33.0889 54.4779C32.9535 54.5195 32.7974 54.4779 32.7037 54.3738C30.6012 51.9902 28.1656 49.9501 25.449 48.2847C25.3345 48.2118 25.2616 48.0766 25.272 47.9308C25.6259 44.3607 26.7188 40.9883 28.5195 37.9177L28.5091 37.9073ZM29.6436 63.5542C29.5812 63.752 29.4042 63.7936 29.3314 63.804C29.2585 63.804 29.0919 63.804 28.9774 63.6374C26.7604 60.1506 25.449 56.112 25.1887 51.9694C25.1783 51.7612 25.3136 51.6571 25.3761 51.6259C25.4385 51.5947 25.6051 51.5218 25.7716 51.6467C27.6972 53.0103 29.4459 54.6132 30.9759 56.3931C31.0384 56.4659 31.0696 56.5596 31.0592 56.6637C30.8718 59.0056 30.393 61.3268 29.6332 63.5646L29.6436 63.5542ZM39.9273 73.0573C36.6798 71.6313 33.8175 69.5392 31.4235 66.8537C31.3298 66.7497 31.2986 66.5935 31.3506 66.4686C32.5684 63.5334 33.3387 60.442 33.6405 57.2778C33.651 57.1321 33.755 57.0072 33.8903 56.9655L38.5326 55.4563C38.5326 55.4563 38.6055 55.4354 38.6471 55.4354C38.7512 55.4354 38.8449 55.4771 38.9177 55.5604C41.5199 58.4748 44.7778 60.8479 48.348 62.4197C48.4833 62.4821 48.5665 62.607 48.5665 62.7527V67.6344C48.5665 67.7801 48.4833 67.9154 48.348 67.9675C45.4335 69.2269 42.7272 70.9235 40.302 72.9949C40.198 73.0885 40.0418 73.1093 39.9169 73.0469L39.9273 73.0573ZM56.3001 74.0878C56.2897 74.1606 56.2377 74.3271 56.0295 74.3792C52.0118 75.3992 47.765 75.3992 43.7473 74.3792C43.5495 74.3271 43.4871 74.1606 43.4767 74.0878C43.4663 74.0149 43.4454 73.8484 43.6224 73.7131C45.5168 72.3079 47.5777 71.1317 49.7531 70.2261C49.8468 70.1845 49.9405 70.1845 50.0341 70.2261C52.1991 71.1317 54.2601 72.3079 56.1648 73.7131C56.3314 73.838 56.3209 74.0149 56.3105 74.0878H56.3001ZM68.3637 66.8642C65.9698 69.5496 63.1074 71.6313 59.8599 73.0573C59.7246 73.1198 59.5789 73.0885 59.4748 73.0052C57.0496 70.9339 54.3537 69.2373 51.4289 67.9779C51.2936 67.9154 51.2103 67.7905 51.2103 67.6448V62.7632C51.2103 62.6174 51.2936 62.4821 51.4289 62.4301C54.999 60.8584 58.2673 58.4852 60.8591 55.5708C60.9319 55.4875 61.0256 55.4459 61.1297 55.4459C61.1714 55.4459 61.2026 55.4459 61.2442 55.4667L65.8865 56.976C66.0218 57.0176 66.1259 57.1425 66.1363 57.2882C66.4381 60.4524 67.2084 63.5334 68.4262 66.479C68.4782 66.6039 68.4574 66.7601 68.3533 66.8642H68.3637ZM70.7994 63.6479C70.6849 63.8248 70.5079 63.8248 70.4455 63.8144C70.3726 63.8144 70.2061 63.7624 70.1332 63.5646C69.3838 61.3268 68.905 59.0056 68.7072 56.6637C68.7072 56.57 68.728 56.4659 68.7905 56.3931C70.3205 54.6132 72.0692 53.0207 73.9948 51.6467C74.0676 51.5947 74.1405 51.5739 74.203 51.5739C74.2862 51.5739 74.3487 51.6051 74.3903 51.6259C74.4528 51.6571 74.5985 51.7612 74.5777 51.9694C74.3175 56.112 73.006 60.1506 70.789 63.6374L70.7994 63.6479Z" fill="#9DADF2"/>
        </svg>
    </symbol>
    <symbol id="m">
        <svg xmlns="http://www.w3.org/2000/svg"  viewBox="0 0 100 100" fill="none">
            <path d="M49.7325 99.3895C22.4098 99.3895 0.187378 77.1567 0.187378 49.8444C0.187378 22.5321 22.4202 0.299316 49.7325 0.299316C77.0447 0.299316 99.2776 22.5321 99.2776 49.8444C99.2776 77.1567 77.0447 99.3895 49.7325 99.3895ZM49.7325 3.59884C24.2313 3.59884 3.4869 24.3432 3.4869 49.8444C3.4869 75.3456 24.2313 96.09 49.7325 96.09C75.2336 96.09 95.9781 75.3456 95.9781 49.8444C95.9781 24.3432 75.2336 3.59884 49.7325 3.59884Z" fill="#7DDACF"/>
            <path d="M82.0647 14.4911L66.7264 29.8293L69.7441 32.847L85.0823 17.5087L82.0647 14.4911Z" fill="#7DDACF"/>
            <path d="M29.2638 67.2899L13.9255 82.6282L16.9431 85.6458L32.2814 70.3075L29.2638 67.2899Z" fill="#7DDACF"/>
            <path d="M70.1932 67.2976L67.1757 70.3152L82.5139 85.6534L85.5315 82.6358L70.1932 67.2976Z" fill="#7DDACF"/>
            <path d="M16.9393 14.0366L13.9218 17.0542L29.2527 32.3851L32.2703 29.3675L16.9393 14.0366Z" fill="#7DDACF"/>
            <path d="M61.8166 51.1768C62.8158 50.1776 62.8158 48.5642 61.8166 47.5754L59.6932 45.4625C58.694 44.4632 57.0807 44.4632 56.0919 45.4625L54.9469 46.6074L53.625 45.2855C52.6258 44.2863 51.0124 44.2863 50.0236 45.2855L48.8787 46.4409L47.5568 45.1086C46.5575 44.1093 44.9442 44.1093 43.9554 45.1086L36.9295 52.1344C36.8775 52.1864 36.8775 52.2697 36.9295 52.3321C37.8663 53.2689 39.3964 53.2689 40.3436 52.3321L44.8713 47.8044C45.3605 47.3152 46.1516 47.3152 46.6408 47.8044L46.9739 48.1375C47.0363 48.2 47.0363 48.2936 46.9739 48.356L43.1956 52.1344C43.1435 52.1864 43.1435 52.2697 43.1956 52.3321C44.1323 53.2689 45.6624 53.2689 46.6096 52.3321L50.95 47.9918C51.4392 47.5026 52.2303 47.5026 52.7195 47.9918L53.0525 48.3248C53.1045 48.3769 53.1045 48.4602 53.0525 48.5226L49.4095 52.1656C49.3574 52.2177 49.3574 52.301 49.4095 52.3634C50.3463 53.3002 51.8764 53.3002 52.8235 52.3634L57.0182 48.1687C57.5074 47.6795 58.2985 47.6795 58.7877 48.1687L59.5059 48.8869C59.7869 49.1679 59.7869 49.6363 59.5059 49.9173L59.3914 50.0318C59.1104 50.3128 58.642 50.3128 58.3609 50.0318L57.4346 49.1055C57.3825 49.0535 57.2992 49.0535 57.2368 49.1055L55.6339 50.7084C55.5818 50.7604 55.5818 50.8437 55.6339 50.9062L57.0806 52.353C58.0799 53.3522 59.6932 53.3522 60.682 52.353L61.827 51.208L61.8166 51.1768Z" fill="#7DDACF"/>
            <path d="M49.7336 11.853C28.7498 11.853 11.7421 28.8607 11.7421 49.8445C11.7421 70.8284 28.7498 87.8361 49.7336 87.8361C70.7174 87.8361 87.7251 70.8284 87.7251 49.8445C87.7251 28.8607 70.7174 11.853 49.7336 11.853ZM51.2845 23.5836C57.384 23.9375 62.9214 26.3731 67.2097 30.1827L61.7243 35.668C58.862 33.2428 55.2502 31.6711 51.2845 31.338V23.5836ZM48.1931 23.5836V31.338C44.2274 31.6607 40.6157 33.2428 37.7533 35.668L32.2679 30.1827C36.5563 26.3731 42.0937 23.9375 48.1931 23.5836ZM30.0821 32.3685L35.5674 37.8538C33.1422 40.7162 31.5706 44.328 31.2375 48.2937H23.483C23.8369 42.1942 26.2726 36.6568 30.0821 32.3685ZM23.483 51.3851H31.2375C31.5602 55.3508 33.1422 58.9625 35.5674 61.8249L30.0821 67.3103C26.2726 63.0219 23.8369 57.4845 23.483 51.3851ZM48.1931 76.0952C42.0937 75.7413 36.5563 73.3056 32.2679 69.4961L37.7533 64.0107C40.6157 66.436 44.2274 68.0076 48.1931 68.3407V76.0952ZM33.7668 49.8341C33.7668 41.018 40.9175 33.8673 49.7336 33.8673C58.5497 33.8673 65.7005 41.018 65.7005 49.8341C65.7005 58.6502 58.5497 65.801 49.7336 65.801C40.9175 65.801 33.7668 58.6502 33.7668 49.8341ZM51.2845 76.0952V68.3407C55.2502 68.018 58.862 66.436 61.7243 64.0107L67.2097 69.4961C62.9214 73.3056 57.384 75.7413 51.2845 76.0952ZM69.3955 67.3103L63.9102 61.8249C66.3354 58.9625 67.9071 55.3508 68.2402 51.3851H75.9946C75.6407 57.4845 73.2051 63.0219 69.3955 67.3103ZM68.2402 48.2937C67.9175 44.328 66.3354 40.7162 63.9102 37.8538L69.3955 32.3685C73.2051 36.6568 75.6407 42.1942 75.9946 48.2937H68.2402Z" fill="#7DDACF"/>
        </svg>
    </symbol>
    <symbol id="shield">
        <svg xmlns="http://www.w3.org/2000/svg"  viewBox="0 0 100 100" fill="none">
            <path d="M49.7325 100C37.0339 100 24.3458 95.1705 14.6762 85.5009C-4.65264 66.1721 -4.65264 34.7276 14.6762 15.3987C24.044 6.03095 36.4927 0.878662 49.7325 0.878662C62.9722 0.878662 75.421 6.03095 84.7888 15.3987C104.118 34.7276 104.118 66.1721 84.7888 85.5009C75.1296 95.1601 62.431 100 49.7325 100ZM17.2784 82.8988C35.1708 100.791 64.2838 100.791 82.1762 82.8988C100.069 65.0063 100.069 35.8933 82.1762 18.0009C73.5058 9.33049 61.9835 4.56336 49.7221 4.56336C37.4607 4.56336 25.9383 9.3409 17.2679 18.0009C-0.624513 35.8933 -0.624513 65.0063 17.2679 82.8988H17.2784Z" fill="#9DADF2"/>
            <path d="M49.0769 68.9929C49.2538 69.4196 49.6701 69.6693 50.1073 69.6693C50.253 69.6693 50.3987 69.6382 50.5445 69.5861C54.0418 68.1185 57.2268 65.8493 59.7457 63.0182C60.1517 62.5602 60.11 61.8525 59.652 61.4466C59.194 61.0407 58.4862 61.0823 58.0803 61.5403C55.78 64.132 52.876 66.2033 49.6805 67.5356C49.1185 67.775 48.8478 68.4308 49.0872 68.9929H49.0769Z" fill="#9DADF2"/>
            <path d="M68.6225 33.312L50.1368 25.9218C49.8661 25.8177 49.5747 25.8177 49.3041 25.9218L30.8183 33.312C30.3916 33.4785 30.121 33.8844 30.121 34.3424V47.5822C30.1418 59.8019 37.865 70.8455 49.3353 75.0506C49.4602 75.0922 49.5851 75.1131 49.7204 75.1131C49.8558 75.1131 49.9807 75.0922 50.1056 75.0506C61.5759 70.8351 69.299 59.8019 69.3199 47.5822V34.3424C69.3199 33.8844 69.0493 33.4785 68.6225 33.312ZM67.0925 47.5822C67.0716 58.6986 60.0978 68.8262 49.7308 72.8127C39.3638 68.8262 32.3796 58.6986 32.3588 47.5822V35.1022L49.7308 28.1597L67.0925 35.1022V47.5822Z" fill="#9DADF2"/>
            <path d="M42.0083 35.0502C41.7376 34.9357 41.4358 34.9357 41.1548 35.0502L36.7519 36.8094C36.3252 36.9759 36.0546 37.3818 36.0546 37.8398V42.5341C36.0546 43.1482 36.5542 43.6478 37.1683 43.6478C37.7824 43.6478 38.282 43.1482 38.282 42.5341V38.5996L41.9771 37.1217C42.2581 37.0072 42.4663 36.7989 42.5912 36.5179C42.7056 36.2473 42.7056 35.9455 42.5912 35.6644C42.4767 35.3834 42.2685 35.1751 41.9979 35.0502H42.0083Z" fill="#9DADF2"/>
            <path d="M77.8876 22.2998C70.3726 14.7743 60.3698 10.6421 49.7322 10.6421C39.0946 10.6421 29.1023 14.7847 21.5768 22.2998C6.05756 37.819 6.05756 63.0808 21.5768 78.6105C29.3417 86.3754 39.5317 90.2473 49.7322 90.2473C59.9326 90.2473 70.1227 86.365 77.8876 78.6105C93.4069 63.0913 93.4069 37.8295 77.8876 22.2998ZM72.3814 47.5823C72.4126 61.7068 63.3883 74.0619 49.9299 78.3399C49.805 78.3815 49.6697 78.3815 49.5344 78.3399C36.076 74.0619 27.0518 61.7068 27.083 47.5823V31.959C27.083 31.6987 27.2391 31.4594 27.4889 31.3553L49.4928 22.56C49.5657 22.5288 49.6489 22.5184 49.7322 22.5184C49.8154 22.5184 49.8988 22.5288 49.9716 22.56L71.9755 31.3657C72.2253 31.4594 72.3814 31.6987 72.3814 31.9694V47.5927V47.5823Z" fill="#9DADF2"/>
        </svg>
    </symbol>
    <symbol id="world">
        <svg xmlns="http://www.w3.org/2000/svg" viewBox="0 0 100 222" fill="none">
            <path d="M0.546753 50.4613C0.546753 23.1386 22.7796 0.905762 50.1023 0.905762C77.425 0.905762 99.6578 23.1386 99.6578 50.4613C99.6578 77.7839 77.425 100.017 50.1023 100.017C22.7796 100.017 0.546753 77.7839 0.546753 50.4613ZM96.0877 50.4613C96.0877 25.1058 75.4577 4.47592 50.1023 4.47592C24.7469 4.47592 4.11697 25.1058 4.11697 50.4613C4.11697 75.8167 24.7469 96.4466 50.1023 96.4466C75.4577 96.4466 96.0877 75.8167 96.0877 50.4613Z" fill="#478BF9"/>
            <path d="M0.544089 171.607C0.544089 170.618 1.34558 169.827 2.32399 169.827C3.3024 169.827 4.10389 170.629 4.10389 171.607C4.10389 196.963 24.7338 217.593 50.0892 217.593C75.4447 217.593 96.0746 196.963 96.0746 171.607C96.0746 170.618 96.8761 169.827 97.8545 169.827C98.8329 169.827 99.6343 170.629 99.6343 171.607C99.6343 198.93 77.4015 221.163 50.0788 221.163C22.7561 221.163 0.523315 198.93 0.523315 171.607H0.544089Z" fill="#478BF9"/>
            <path d="M98.1434 49.2644H76.4414V53.5423H98.1434V49.2644Z" fill="#478BF9"/>
            <path d="M23.4207 49.2644H1.71863V53.5423H23.4207V49.2644Z" fill="#478BF9"/>
            <path d="M52.4107 78.2419H48.1328V99.944H52.4107V78.2419Z" fill="#478BF9"/>
            <path d="M52.4107 2.86255H48.1328V24.5645H52.4107V2.86255Z" fill="#478BF9"/>
            <path d="M75.7858 24.2522C60.9431 9.40944 36.8678 9.40944 22.0147 24.2522C7.17201 39.0949 7.17201 63.1701 22.0147 78.0232C36.8574 92.8659 60.9326 92.8659 75.7858 78.0232C90.6285 63.1805 90.6285 39.1053 75.7858 24.2522ZM56.2487 27.4684C60.5787 28.8112 64.4611 31.3196 67.4796 34.7337L68.0625 35.3894L67.2091 35.5872C64.9504 36.118 62.5356 36.5552 60.0375 36.8778L59.5899 36.9403L59.465 36.5031C59.0487 35.0772 58.5595 33.7032 57.9974 32.4333C57.3 30.8408 56.5194 29.446 55.6659 28.2699L54.7291 26.9896L56.2487 27.458V27.4684ZM38.8767 49.9511L38.8976 49.4098C39.0017 46.1207 39.3659 42.9773 39.9905 40.0837L40.0842 39.6257L40.5525 39.6673C46.0274 40.1461 51.8771 40.1253 57.3209 39.6153L57.7892 39.5737L57.8933 40.0317C58.5283 42.9565 58.8925 46.1103 58.9862 49.4098V49.9511H38.8871H38.8767ZM58.9862 52.3659V52.9072C58.8717 56.2067 58.5074 59.3605 57.8725 62.2853L57.7684 62.7433L57.3 62.7017C51.8563 62.1916 46.0067 62.1812 40.5317 62.6496L40.0633 62.6912L39.9696 62.2333C39.3451 59.3396 38.9808 56.2067 38.8767 52.9072L38.8559 52.3659H58.9654H58.9862ZM48.9315 26.5629C51.9604 26.5629 55.0413 30.4036 56.9669 36.5968L57.1647 37.2213L56.509 37.2734C53.9484 37.4919 51.3047 37.6064 48.6505 37.6064C46.1836 37.6064 43.7271 37.5127 41.3331 37.315L40.6774 37.2629L40.8752 36.628C42.8008 30.4141 45.8922 26.5525 48.9315 26.5525V26.5629ZM30.2792 34.8481C33.3185 31.3821 37.2322 28.832 41.6142 27.4789L43.1443 27.0105L42.1971 28.3011C41.3436 29.4669 40.5525 30.872 39.8656 32.4542C39.3139 33.7032 38.8143 35.0979 38.3771 36.5968L38.2522 37.0236L37.8047 36.9715C35.2858 36.6593 32.8501 36.2429 30.5602 35.7121L29.6963 35.5143L30.2792 34.8481ZM24.2006 49.389C24.492 45.3297 25.7931 41.3744 27.9685 37.9291L28.1767 37.6064L28.5514 37.7001C31.216 38.3767 34.0887 38.9179 37.1072 39.3031L37.6694 39.3759L37.5548 39.938C36.9303 42.9565 36.5764 46.1519 36.4828 49.4411V49.9511H24.1693L24.211 49.389H24.2006ZM28.1767 64.7105L27.9685 64.3878C25.7931 60.953 24.492 56.9873 24.2006 52.9279L24.1589 52.3659H36.4619V52.8759C36.566 56.165 36.9303 59.3709 37.5445 62.379L37.6589 62.941L37.0968 63.0139C34.0887 63.399 31.2056 63.9403 28.541 64.6169L28.1663 64.7105H28.1767ZM41.6142 74.8485C37.2322 73.4954 33.3185 70.9453 30.2792 67.4792L29.6963 66.8131L30.5602 66.6153C32.8501 66.0949 35.2858 65.6681 37.8047 65.3558L38.2522 65.3038L38.3771 65.7306C38.8143 67.2294 39.3139 68.6242 39.8656 69.8732C40.5629 71.4657 41.3436 72.8605 42.1971 74.0367L43.1443 75.3273L41.6142 74.8589V74.8485ZM48.9315 75.7541C45.8922 75.7541 42.8008 71.8925 40.8752 65.6785L40.6774 65.0436L41.3331 64.9916C46.2981 64.596 51.5857 64.6064 56.509 65.0332L57.1647 65.0852L56.9669 65.7098C55.0309 71.8925 51.95 75.7437 48.9315 75.7437V75.7541ZM67.4796 67.5833C64.4611 70.9973 60.5683 73.5058 56.2487 74.8485L54.7291 75.3169L55.6659 74.0367C56.5194 72.8709 57.3 71.4657 57.9974 69.8732C58.549 68.593 59.0487 67.2294 59.465 65.8034L59.5899 65.3663L60.0375 65.4287C62.5356 65.7514 64.9504 66.1885 67.2091 66.7194L68.0625 66.9276L67.4796 67.5833ZM73.652 52.9279C73.3606 57.0289 72.0387 61.0363 69.8112 64.5127L69.603 64.8354L69.2283 64.7418C66.595 64.0444 63.7325 63.4927 60.7349 63.0868L60.1728 63.0139L60.2873 62.4623C60.9118 59.4438 61.2761 56.2275 61.3698 52.8863V52.3763H73.6832L73.6416 52.9383L73.652 52.9279ZM61.3906 49.9511V49.4411C61.2865 46.0999 60.9222 42.8732 60.2977 39.8651L60.1832 39.3135L60.7453 39.2406C63.743 38.8347 66.5949 38.283 69.2387 37.5856L69.6135 37.492L69.8216 37.8146C72.049 41.2911 73.3813 45.288 73.6624 49.3994L73.704 49.9615H61.401L61.3906 49.9511Z" fill="#478BF9"/>
            <path d="M0.484375 172.357V52.7616C0.484375 51.7728 1.28586 50.9817 2.26427 50.9817C3.24269 50.9817 4.04417 51.7832 4.04417 52.7616V172.357C4.04417 173.346 3.24269 174.137 2.26427 174.137C1.28586 174.137 0.484375 173.335 0.484375 172.357Z" fill="#478BF9"/>
            <path d="M96.0352 172.628V53.0323C96.0352 52.0435 96.8366 51.2524 97.815 51.2524C98.7934 51.2524 99.5949 52.0539 99.5949 53.0323V172.628C99.5949 173.616 98.7934 174.407 97.815 174.407C96.8366 174.407 96.0352 173.606 96.0352 172.628Z" fill="#478BF9"/>
        </svg>
    </symbol>
</svg>
